<?xml version="1.0" encoding="UTF-8" standalone="no"?>
<svg
   width="8"
   height="8"
   viewBox="0 0 8 8.0000001"
   fill="none"
   stroke="currentColor"
   stroke-width="2"
   stroke-linecap="round"
   stroke-linejoin="round"
   class="lucide lucide-pencil-icon lucide-pencil"
   version="1.1"
   id="svg2"
   sodipodi:docname="cursor-active-word.svg"
   inkscape:version="1.4.4 (dcaf3e7d9e, 2026-05-05)"
   xmlns:inkscape="http://www.inkscape.org/namespaces/inkscape"
   xmlns:sodipodi="http://sodipodi.sourceforge.net/DTD/sodipodi-0.dtd"
   xmlns="http://www.w3.org/2000/svg"
   xmlns:svg="http://www.w3.org/2000/svg">
  <defs
     id="defs2" />
  <sodipodi:namedview
     id="namedview2"
     pagecolor="#ffffff"
     bordercolor="#999999"
     borderopacity="1"
     inkscape:showpageshadow="2"
     inkscape:pageopacity="0"
     inkscape:pagecheckerboard="0"
     inkscape:deskcolor="#d1d1d1"
     inkscape:zoom="33.25"
     inkscape:cx="12"
     inkscape:cy="12"
     inkscape:window-width="1920"
     inkscape:window-height="1009"
     inkscape:window-x="0"
     inkscape:window-y="0"
     inkscape:window-maximized="1"
     inkscape:current-layer="svg2" />
  <g
     id="g3"
     transform="matrix(0.55475451,0,0,0.54855313,-2.61398,-2.7795341)">
    <circle
       style="fill:#ffcc00"
       id="path1"
       cx="12.075188"
       cy="12.466166"
       r="4.5263157" />
    <path
       style="fill:#ffffff;stroke-width:0.0601504"
       d="M 11.157895,19.397983 C 9.6308201,19.208887 8.1776841,18.523257 7.0682621,17.468382 5.8733631,16.33223 5.1199991,14.861435 4.8834741,13.203008 c -0.06964,-0.488264 -0.06964,-1.406473 0,-1.894737 0.218291,-1.5305723 0.872393,-2.8939973 1.917463,-3.9968043 0.594377,-0.627214 1.275981,-1.127938 2.054955,-1.509621 2.0026249,-0.9812515 4.3156659,-0.9812515 6.3182909,0 2.161318,1.059008 3.628103,3.092212 3.972418,5.5064253 0.06964,0.488264 0.06964,1.406473 0,1.894737 -0.223005,1.563628 -0.881594,2.91743 -1.973375,4.056489 -1.137925,1.187201 -2.761296,1.976645 -4.42768,2.153174 -0.389209,0.04123 -1.196366,0.03376 -1.587651,-0.01469 z m 1.323308,-1.941417 c 2.082653,-0.192393 3.851676,-1.592046 4.495226,-3.556627 0.193338,-0.59021 0.240935,-0.915041 0.240935,-1.644299 0,-0.553987 -0.0098,-0.695447 -0.06872,-0.987483 -0.331941,-1.6465343 -1.377171,-3.0031693 -2.863289,-3.7163483 -1.231795,-0.591131 -2.607317,-0.680463 -3.923763,-0.254826 -0.35659,0.115293 -0.9932279,0.430284 -1.2905069,0.638506 -1.160681,0.812973 -1.912311,1.956959 -2.189655,3.3326683 -0.05887,0.292036 -0.06872,0.433496 -0.06872,0.987483 0,0.555389 0.0098,0.695098 0.06925,0.990253 0.419198,2.080205 1.997676,3.684926 4.0534129,4.120803 0.531214,0.112633 1.002701,0.140044 1.54583,0.08987 z"
       id="path3" />
  </g>
</svg>
